<svg width="48" height="48" viewBox="0 0 48 48" fill="none" xmlns="http://www.w3.org/2000/svg">
<rect width="48" height="48" rx="24" fill="white"/>
<g clip-path="url(#clip0_890_15)">
<path d="M25.8867 8H13.943C12.793 8 11.8555 8.9375 11.8555 10.0938V37.9125C11.8555 39.0688 12.793 40 13.9492 40.0062H34.918C36.0742 40.0062 37.0055 39.0688 37.0117 37.9125L36.9492 17.25L25.8867 8Z" fill="#161E25"/>
<path d="M25.8867 8L25.8555 17.0312C25.8555 17.0312 25.8867 17.25 26.0742 17.25H36.9492L25.8867 8Z" fill="#8DB69B"/>
<path d="M9.84219 23.418H30.9422C31.4109 23.418 31.7922 23.7992 31.7922 24.268V33.693C31.7922 34.1617 31.4109 34.543 30.9422 34.543H9.84219C9.37344 34.543 8.99219 34.1617 8.99219 33.693V24.268C8.99219 23.7992 9.37344 23.418 9.84219 23.418Z" fill="#8DB69B"/>
<path d="M20.3981 32.3871H14.8398C14.9022 31.8348 15.1071 31.3004 15.4188 30.8372C15.7395 30.3562 16.3452 29.7861 17.236 29.127C17.7793 28.7261 18.1267 28.4144 18.2781 28.2095C18.4117 28.0403 18.4919 27.8265 18.5097 27.6127C18.5097 27.4167 18.4296 27.2297 18.287 27.0872C17.9575 26.7932 17.4676 26.8021 17.138 27.0961C16.9865 27.2475 16.8886 27.5058 16.8351 27.8799L14.9824 27.7285C15.0536 27.203 15.1872 26.8021 15.3832 26.5082C15.5881 26.2053 15.8731 25.9737 16.2027 25.8312C16.559 25.6798 17.0489 25.5996 17.6724 25.5996C18.3227 25.5996 18.8304 25.6709 19.1956 25.8223C19.543 25.9559 19.8369 26.1964 20.0507 26.5082C20.2556 26.811 20.3625 27.1762 20.3625 27.5414C20.3625 27.9601 20.2378 28.3609 20.0062 28.7083C19.7657 29.0824 19.3381 29.4833 18.7057 29.9286C18.3316 30.187 18.0822 30.3651 17.9575 30.472C17.8328 30.5789 17.6813 30.7125 17.5121 30.8728H20.407V32.3871H20.3981Z" fill="white"/>
<path d="M24.2012 31.1401H20.8164V29.6169L24.1923 25.5996H25.8046V29.697H26.6419V31.1401H25.8046V32.3871H24.2012V31.1401ZM24.2012 29.706V27.6038L22.4198 29.706H24.2012Z" fill="white"/>
</g>
<defs>
<clipPath id="clip0_890_15">
<rect width="32" height="32" fill="white" transform="translate(7 8)"/>
</clipPath>
</defs>
</svg>
