<svg width="600" height="600" viewBox="0 0 600 600" fill="none" xmlns="http://www.w3.org/2000/svg">
<mask id="mask0_71_2" style="mask-type:luminance" maskUnits="userSpaceOnUse" x="25" y="25" width="550" height="550">
<path d="M575 25H25V575H575V25Z" fill="white"/>
</mask>
<g mask="url(#mask0_71_2)">
<path d="M349.615 25H144.333C124.567 25 108.454 41.1133 108.454 60.9872V539.121C108.454 558.995 124.567 575 144.439 575.106H504.841C524.713 575.106 540.72 558.995 540.826 539.121L539.752 183.984L349.615 25Z" fill="#161E25"/>
<path d="M349.615 25L349.079 180.224C349.079 180.224 349.615 183.984 352.838 183.984H539.752L349.615 25Z" fill="#8DB69B"/>
<path d="M73.8501 289.997H436.506C444.562 289.997 451.116 296.549 451.116 304.606V466.598C451.116 474.654 444.562 481.208 436.506 481.208H73.8501C65.7935 481.208 59.2408 474.654 59.2408 466.598V304.606C59.2408 296.549 65.7935 289.997 73.8501 289.997Z" fill="#8DB69B"/>
<path d="M255.28 444.153H159.747C160.819 434.66 164.341 425.475 169.698 417.514C175.21 409.247 185.621 399.448 200.931 388.12C210.269 381.23 216.24 375.872 218.842 372.35C221.139 369.442 222.517 365.768 222.823 362.093C222.823 358.724 221.446 355.51 218.995 353.061C213.332 348.008 204.912 348.161 199.247 353.214C196.643 355.816 194.96 360.256 194.041 366.685L162.198 364.083C163.421 355.051 165.718 348.161 169.086 343.109C172.608 337.903 177.507 333.923 183.172 331.473C189.295 328.871 197.716 327.493 208.432 327.493C219.609 327.493 228.335 328.718 234.612 331.32C240.583 333.617 245.634 337.75 249.309 343.109C252.831 348.314 254.668 354.591 254.668 360.867C254.668 368.064 252.525 374.953 248.544 380.924C244.411 387.353 237.061 394.244 226.192 401.897C219.762 406.339 215.475 409.4 213.332 411.237C211.189 413.074 208.585 415.371 205.677 418.126H255.433V444.153H255.28Z" fill="white"/>
<path d="M320.646 422.72H262.469V396.54L320.493 327.493H348.204V397.917H362.595V422.72H348.204V444.153H320.646V422.72ZM320.646 398.072V361.94L290.028 398.072H320.646Z" fill="white"/>
</g>
</svg>
